<?xml version="1.0" standalone="no"?><!DOCTYPE svg PUBLIC "-//W3C//DTD SVG 1.1//EN" "http://www.w3.org/Graphics/SVG/1.1/DTD/svg11.dtd"><svg t="1578017806230" class="icon" viewBox="0 0 1024 1024" version="1.1" xmlns="http://www.w3.org/2000/svg" p-id="13864" xmlns:xlink="http://www.w3.org/1999/xlink" width="16" height="16"><defs><style type="text/css"></style></defs><path d="M481.152 806.08a42.24 42.24 0 0 0 30.336 12.544 44.16 44.16 0 0 0 30.4-12.544l288.64-292.352a43.328 43.328 0 0 0 12.416-30.784 45.824 45.824 0 0 0-5.632-21.632 49.536 49.536 0 0 0-11.264-13.12l-3.968-2.88a42.688 42.688 0 0 0-21.952-6.272 44.16 44.16 0 0 0-30.336 12.544l-216.064 218.88V45.184c0-23.936-18.048-44.416-41.6-44.992a42.88 42.88 0 0 0-43.968 43.328v626.816l-215.488-218.24a43.2 43.2 0 0 0-60.8 0 43.328 43.328 0 0 0-12.352 30.72c0 11.456 4.48 22.272 12.416 30.848l289.216 292.352z" p-id="13865"></path><path d="M984.64 761.6c-21.504 0-38.848 19.392-38.848 43.328v116.8c0 8.576-6.144 15.36-13.824 15.36H91.584c-7.552 0.064-13.76-6.784-13.824-15.232v-116.928c0-23.936-17.344-43.328-38.848-43.328-21.504 0-38.912 19.392-38.912 43.328v116.8c0 55.872 40.96 102.016 91.584 102.016H932.544c50.112 0 91.584-45.568 91.584-102.016v-116.8c-0.512-23.936-17.92-43.328-39.424-43.328z" p-id="13866"></path></svg>