<?xml version="1.0" standalone="no"?><!DOCTYPE svg PUBLIC "-//W3C//DTD SVG 1.1//EN" "http://www.w3.org/Graphics/SVG/1.1/DTD/svg11.dtd"><svg t="1577944342868" class="icon" viewBox="0 0 1137 1024" version="1.1" xmlns="http://www.w3.org/2000/svg" p-id="2408" width="17.765625" height="16" xmlns:xlink="http://www.w3.org/1999/xlink"><defs><style type="text/css"></style></defs><path d="M1062.565201 972.690842a192.945458 192.945458 0 0 1-217.291171 30.944083 71.671957 71.671957 0 0 1-51.194255-86.97335c11.945326-65.869941 18.202402-132.934415 26.165953-199.885124 10.807676-91.012009 30.147728-112.001653 118.315611-110.010766a51.194255 51.194255 0 0 0 62.570756-61.034928 432.818984 432.818984 0 1 0-865.182907 3.014773 48.80519 48.80519 0 0 0 59.157806 58.020155c91.580834-2.04777 110.920886 18.941874 121.728561 106.93911 7.963551 70.989367 15.927102 140.954848 27.303603 211.944215a63.822171 63.822171 0 0 1-43.230704 73.947258 194.993229 194.993229 0 0 1-208.758795-15.016982 167.917156 167.917156 0 0 1-86.461408-182.024017c36.973629-124.003862 19.908877-250.965614 43.230704-374.912593a530.543128 530.543128 0 0 1 1040.381024-2.957891 681.33865 681.33865 0 0 1 14.220626 135.949188 567.232344 567.232344 0 0 0 23.890652 203.923782 187.029678 187.029678 0 0 1-64.846056 207.96244z m0 0"  p-id="2409"></path></svg>