<?xml version="1.0" standalone="no"?><!DOCTYPE svg PUBLIC "-//W3C//DTD SVG 1.1//EN" "http://www.w3.org/Graphics/SVG/1.1/DTD/svg11.dtd"><svg t="1578017405705" class="icon" viewBox="0 0 1024 1024" version="1.1" xmlns="http://www.w3.org/2000/svg" p-id="3152" width="16" height="16" xmlns:xlink="http://www.w3.org/1999/xlink"><defs><style type="text/css"></style></defs><path d="M1023.831841 529.04885c-1.316953-71.284471-16.304422-142.385948-43.941441-207.382642-27.563022-65.033693-67.555603-123.962602-116.650861-172.655875-49.058259-48.728271-107.256195-87.259904-170.241961-112.666002C630.047812 10.828236 562.346214-1.344332 495.484586 0.117616 428.622958 1.505567 362.017321 16.531034 301.151481 44.24005c-60.938838 27.600021-116.13888 67.665599-161.761261 116.833855-45.622381 49.132257-81.667103 107.40219-105.42826 170.424954C10.090807 394.485624-1.27779 462.151224 0.184158 529.04885c1.315953 66.934625 15.426453 133.467265 41.381532 194.333105 25.91908 60.865841 63.461748 116.028883 109.523115 161.578268 46.023367 45.622381 100.566432 81.593105 159.53134 105.282265 58.927909 23.798156 122.243663 35.093755 184.863441 33.631806 62.657777-1.389951 124.803572-15.536449 181.685554-41.491527 56.917981-25.91908 108.498151-63.42475 151.049641-109.486116 42.588489-45.988368 76.183297-100.493435 98.299513-159.348347 13.453523-35.678734 22.5552-72.929413 27.381028-110.692072 1.279955 0.109996 2.595908 0.145995 3.874863 0.145994 36.483706 0 66.057656-30.560916 66.057656-68.250578 0-1.899933-0.109996-3.801865-0.255991-5.702798h0.255991zM918.878565 710.29442c-24.200141 56.735987-59.293896 108.133164-102.32137 150.538659-43.026473 42.478493-93.912668 75.927306-148.856719 97.897527-54.944051 22.043218-113.798963 32.461848-172.21589 30.9989-58.416927-1.351952-116.175878-14.621481-169.036003-38.89462-52.897123-24.164143-100.822423-59.147902-140.339021-102.065379-39.554597-42.84348-70.73749-93.58368-91.134767-148.27174-20.508272-54.68806-30.15893-113.287981-28.769979-171.448917 1.352952-58.160937 13.745512-115.590899 36.37371-168.158034 22.5552-52.568135 55.200042-100.201445 95.191622-139.499051 39.956582-39.298606 87.223905-70.224509 138.146099-90.47679 50.923193-20.325279 105.392261-29.86594 159.568339-28.403992 54.176078 1.389951 107.548184 13.781511 156.387452 36.300712 48.875266 22.445204 93.144695 54.908052 129.628401 94.643642 36.555703 39.73659 65.252685 86.711924 84.006019 137.232132 18.826332 50.557206 27.63602 104.587289 26.247069 158.361381h0.219992a73.619388 73.619388 0 0 0-0.219992 5.702798c0 35.203751 25.772086 64.156724 58.891911 67.847593-6.433772 37.141682-17.071394 73.369397-31.766873 107.696179z" p-id="3153"></path></svg>