<?xml version="1.0" standalone="no"?><!DOCTYPE svg PUBLIC "-//W3C//DTD SVG 1.1//EN" "http://www.w3.org/Graphics/SVG/1.1/DTD/svg11.dtd"><svg t="1578017517440" class="icon" viewBox="0 0 1024 1024" version="1.1" xmlns="http://www.w3.org/2000/svg" p-id="6589" xmlns:xlink="http://www.w3.org/1999/xlink" width="16" height="16"><defs><style type="text/css"></style></defs><path d="M512 0C229.239467 0 0 229.239467 0 512s229.239467 512 512 512c282.7264 0 512-229.239467 512-512S794.7264 0 512 0z m0 938.666667C276.3776 938.666667 85.333333 747.6224 85.333333 512S276.3776 85.333333 512 85.333333c235.588267 0 426.666667 191.044267 426.666667 426.666667S747.588267 938.666667 512 938.666667z" p-id="6590"></path><path d="M589.346133 550.4l-193.1264-193.092267 38.365867-38.365866 193.092267 193.1264z" p-id="6591"></path><path d="M627.746133 512l-193.058133 193.058133-38.365867-38.365866 193.058134-193.092267z" p-id="6592"></path></svg>