<?xml version="1.0" standalone="no"?><!DOCTYPE svg PUBLIC "-//W3C//DTD SVG 1.1//EN" "http://www.w3.org/Graphics/SVG/1.1/DTD/svg11.dtd"><svg t="1578017493570" class="icon" viewBox="0 0 1024 1024" version="1.1" xmlns="http://www.w3.org/2000/svg" p-id="5842" xmlns:xlink="http://www.w3.org/1999/xlink" width="16" height="16"><defs><style type="text/css"></style></defs><path d="M512 0C229.239467 0 0 229.239467 0 512s229.239467 512 512 512c282.7264 0 512-229.239467 512-512S794.7264 0 512 0z m0 938.666667C276.3776 938.666667 85.333333 747.6224 85.333333 512S276.3776 85.333333 512 85.333333c235.588267 0 426.666667 191.044267 426.666667 426.666667S747.588267 938.666667 512 938.666667z" p-id="5843"></path><path d="M396.288 512.068267l193.092267-193.1264 38.365866 38.365866-193.1264 193.1264z" p-id="5844"></path><path d="M434.653867 473.6l193.058133 193.058133-38.365867 38.365867-193.092266-193.058133z" p-id="5845"></path></svg>