<?xml version="1.0" standalone="no"?><!DOCTYPE svg PUBLIC "-//W3C//DTD SVG 1.1//EN" "http://www.w3.org/Graphics/SVG/1.1/DTD/svg11.dtd"><svg t="1578017576439" class="icon" viewBox="0 0 1024 1024" version="1.1" xmlns="http://www.w3.org/2000/svg" p-id="10510" xmlns:xlink="http://www.w3.org/1999/xlink" width="16" height="16"><defs><style type="text/css"></style></defs><path d="M512 1024C228.072727 1024 0 795.927273 0 512S228.072727 0 512 0s512 228.072727 512 512-228.072727 512-512 512z m0-930.909091c-232.727273 0-418.909091 186.181818-418.909091 418.909091s186.181818 418.909091 418.909091 418.909091 418.909091-186.181818 418.909091-418.909091-186.181818-418.909091-418.909091-418.909091z" p-id="10511"></path><path d="M442.181818 321.163636l237.381818 162.909091c18.618182 13.963636 18.618182 41.890909 0 55.854546l-237.381818 162.909091c-9.309091 9.309091-27.927273 0-27.927273-13.963637V335.127273c0-13.963636 13.963636-23.272727 27.927273-13.963637z" p-id="10512"></path></svg>